<?xml version="1.0" encoding="utf-8"?>
<!-- Generator: Adobe Illustrator 26.0.1, SVG Export Plug-In . SVG Version: 6.00 Build 0)  -->
<svg version="1.1" id="Layer_1" xmlns="http://www.w3.org/2000/svg" xmlns:xlink="http://www.w3.org/1999/xlink" x="0px" y="0px"
	 viewBox="0 0 512 512" style="enable-background:new 0 0 512 512;" xml:space="preserve">
<style type="text/css">
	.st0{fill:#71749D;}
</style>
<path class="st0" d="M437,75C388.7,26.6,324.4,0,256,0S123.3,26.6,75,75S0,187.6,0,256s26.6,132.7,75,181s112.6,75,181,75
	s132.7-26.6,181-75s75-112.6,75-181S485.4,123.3,437,75z M256,482C131.4,482,30,380.6,30,256S131.4,30,256,30s226,101.4,226,226
	S380.6,482,256,482z"/>
<path class="st0" d="M259.4,120.1c-22.8-0.9-44.4,7.4-60.9,23.2c-16.4,15.8-25.5,37.1-25.5,59.9h30c0-14.6,5.8-28.2,16.3-38.3
	s24.3-15.4,38.9-14.8c27.6,1,50,23.5,51,51c0.7,18.2-7.8,35.3-22.8,45.8c-28.4,19.7-45.3,52.6-45.3,88.1h30
	c0-25.6,12.1-49.4,32.4-63.5c23.4-16.3,36.7-43,35.6-71.5C337.6,156.8,302.5,121.7,259.4,120.1z"/>
<path class="st0" d="M241,357.9h30v30h-30V357.9z"/>
</svg>
