<svg xmlns="http://www.w3.org/2000/svg" width="35.671" height="33.163" viewBox="0 0 35.671 33.163">
  <path id="image_add" d="M30.1,0H5.574A5.58,5.58,0,0,0,0,5.573V25.081a5.58,5.58,0,0,0,5.574,5.574H18.811a1.393,1.393,0,0,0,1.1-2.246L16.268,23.7l10.1-12.849,6.514,7.771v2.35a1.393,1.393,0,1,0,2.787,0V5.573A5.58,5.58,0,0,0,30.1,0ZM27.4,7.744a1.393,1.393,0,0,0-2.163.034L14.509,21.426,10.856,16.7a1.393,1.393,0,0,0-1.1-.541h0a1.393,1.393,0,0,0-1.1.544L5.583,20.693a1.393,1.393,0,1,0,2.209,1.7l1.965-2.555,6.214,8.03H5.574a2.79,2.79,0,0,1-2.787-2.787V5.573A2.79,2.79,0,0,1,5.574,2.787H30.1a2.79,2.79,0,0,1,2.787,2.787v8.709ZM9.754,5.016a4.18,4.18,0,1,0,4.18,4.18A4.185,4.185,0,0,0,9.754,5.016Zm0,5.574A1.393,1.393,0,1,1,11.147,9.2,1.4,1.4,0,0,1,9.754,10.59ZM35.671,26.544a1.393,1.393,0,0,1-1.393,1.393H30.446v3.832a1.393,1.393,0,0,1-2.787,0V27.937H23.827a1.393,1.393,0,0,1,0-2.787h3.832V21.319a1.393,1.393,0,0,1,2.787,0v3.832h3.832A1.393,1.393,0,0,1,35.671,26.544Zm0,0" transform="translate(0 0)" fill="#fff" opacity="0.23"/>
</svg>
