<svg xmlns="http://www.w3.org/2000/svg" width="40.649" height="28.374" viewBox="0 0 40.649 28.374">
  <g id="logo-icon" transform="translate(-53.151 0.504)" opacity="0.87">
    <path id="Path_2" data-name="Path 2" d="M167.474,0A15.222,15.222,0,0,1,172.1.849a17.489,17.489,0,0,1,4.04,2.049,17.267,17.267,0,0,1,3.308,3.074,15.767,15.767,0,0,1,2.429,4.01,13.878,13.878,0,0,1,1.112,4.6c0,.145.029.263.029.41a6.268,6.268,0,0,1-1.405,12.383H156.994a8.716,8.716,0,0,1-1.817-17.242,10.843,10.843,0,0,1,.644-2.547,11.512,11.512,0,0,1,2.841-4.332A12.1,12.1,0,0,1,162.731.761,13.219,13.219,0,0,1,167.474,0m8.372,3.337A16.633,16.633,0,0,0,172.04,1.4a13.681,13.681,0,0,0-4.391-.732,12.036,12.036,0,0,0-4.39.732,10.4,10.4,0,0,0-3.776,2.4,10.511,10.511,0,0,0-2.576,4.069,11.623,11.623,0,0,0-.527,5.562,13.713,13.713,0,0,0,2.283,5.855,15.891,15.891,0,0,0,4.654,4.508,15.026,15.026,0,0,0,5.855,2.2,12.389,12.389,0,0,0,5.855-.527,10.526,10.526,0,0,0,6.7-6.733,11.929,11.929,0,0,0,.555-4.332,13.3,13.3,0,0,0-1.025-4.362,15.11,15.11,0,0,0-2.282-3.805,16.371,16.371,0,0,0-3.132-2.9" transform="translate(-94.612 0)" fill="#fff" stroke="rgba(0,0,0,0)" stroke-width="1"/>
    <path id="Path_3" data-name="Path 3" d="M233.463,13.375a9.073,9.073,0,0,1,.908.029c.234.7.439,1.4.673,2.137-.322-.029-.615-.029-.937-.029a5.077,5.077,0,0,0-.937.088c-.2-.732-.41-1.463-.615-2.166.293-.029.615-.058.908-.058m3.279.439a13.733,13.733,0,0,1,5.328,2.9,13.4,13.4,0,0,1,3.63,5.093,11.375,11.375,0,0,1,.7,6.176,9.249,9.249,0,0,1-3.132,5.474c-.351-1.112-.7-2.166-1.054-3.249a6.476,6.476,0,0,0,1.493-2.225,7.528,7.528,0,0,0,.5-3.718c-.732.117-1.493.263-2.283.38a5.006,5.006,0,0,1-.439,1.844,4.8,4.8,0,0,1-3.337,2.605,6.45,6.45,0,0,1-4.86-1.025,6.817,6.817,0,0,1-3.015-4.214,4.841,4.841,0,0,1,4.508-6.176,6.537,6.537,0,0,1,4.126,1.227,7.235,7.235,0,0,1,1.493,1.347c.763-.088,1.493-.145,2.225-.234A10.04,10.04,0,0,0,239.9,17.3a9.8,9.8,0,0,0-2.4-1.229c-.263-.763-.527-1.522-.761-2.252m4.245,21.077c-.351.145-.673.263-1.025.38s-.732.2-1.083.293c-.322-1.142-.615-2.252-.937-3.337a4.432,4.432,0,0,0,1.082-.206,9.884,9.884,0,0,0,1-.322c.322,1.025.615,2.107.966,3.191m-5.181.849a13.467,13.467,0,0,1-7.816-3.454,13.05,13.05,0,0,1-4.187-7.523,9.8,9.8,0,0,1,1.4-7.143,9.544,9.544,0,0,1,4.977-3.747c.234.82.439,1.61.644,2.459a6.969,6.969,0,0,0-2.078,1.61,7.344,7.344,0,0,0-1.551,6.352,10.354,10.354,0,0,0,7.7,7.787c.293,1.171.586,2.4.908,3.659" transform="translate(-160.075 -11.619)" fill="#fff" stroke="rgba(0,0,0,0)" stroke-width="1" fill-rule="evenodd"/>
  </g>
</svg>
