<svg xmlns="http://www.w3.org/2000/svg" width="33.51" height="33.506" viewBox="0 0 33.51 33.506">
  <path id="pen" d="M29.661,1.319a4.615,4.615,0,0,0-6.52,0L21.508,2.961,4.133,20.326l-.037.037c-.009.009-.009.018-.018.018-.018.028-.046.055-.064.083,0,.009-.01.009-.01.018-.018.028-.027.046-.046.074-.009.009-.009.018-.018.028-.009.028-.018.046-.028.074,0,.009-.009.009-.009.018L.048,32.269a.907.907,0,0,0,.221.94.928.928,0,0,0,.655.268,1.088,1.088,0,0,0,.3-.046L12.8,29.567c.009,0,.009,0,.018-.009a.334.334,0,0,0,.083-.037.033.033,0,0,0,.019-.009c.027-.018.064-.037.092-.056s.055-.046.083-.064c.009-.01.018-.01.018-.018s.028-.018.037-.037L32.16,10.33a4.614,4.614,0,0,0,0-6.52ZM12.507,27.4,6.089,20.981,22.154,4.916l6.419,6.418ZM5.185,22.687l5.607,5.607-8.42,2.8ZM30.86,9.038l-.978.987L23.463,3.606l.987-.987a2.766,2.766,0,0,1,3.91,0l2.508,2.508a2.775,2.775,0,0,1-.009,3.91Zm0,0" transform="translate(0.001 0.029)" fill="#fff"/>
</svg>
