<svg xmlns="http://www.w3.org/2000/svg" width="31.175" height="31.175" viewBox="0 0 31.175 31.175">
  <g id="qr-code" transform="translate(-1 -1)">
    <path id="Path_7132" data-name="Path 7132" d="M2.039,9.313A1.039,1.039,0,0,0,3.078,8.274V4.118A1.039,1.039,0,0,1,4.118,3.078H8.274A1.039,1.039,0,1,0,8.274,1H4.118A3.118,3.118,0,0,0,1,4.118V8.274A1.039,1.039,0,0,0,2.039,9.313Z" transform="translate(0)" fill="#71749d"/>
    <path id="Path_7133" data-name="Path 7133" d="M8.274,29.235H4.118A1.039,1.039,0,0,1,3.078,28.2V24.039a1.039,1.039,0,0,0-2.078,0V28.2a3.118,3.118,0,0,0,3.118,3.118H8.274a1.039,1.039,0,1,0,0-2.078Z" transform="translate(0 0.862)" fill="#71749d"/>
    <path id="Path_7134" data-name="Path 7134" d="M30.274,23a1.039,1.039,0,0,0-1.039,1.039V28.2A1.039,1.039,0,0,1,28.2,29.235H24.039a1.039,1.039,0,0,0,0,2.078H28.2A3.118,3.118,0,0,0,31.313,28.2V24.039A1.039,1.039,0,0,0,30.274,23Z" transform="translate(0.862 0.862)" fill="#71749d"/>
    <path id="Path_7135" data-name="Path 7135" d="M28.2,1H24.039a1.039,1.039,0,0,0,0,2.078H28.2a1.039,1.039,0,0,1,1.039,1.039V8.274a1.039,1.039,0,1,0,2.078,0V4.118A3.117,3.117,0,0,0,28.2,1Z" transform="translate(0.862)" fill="#71749d"/>
    <path id="Path_7136" data-name="Path 7136" d="M31.136,15.548H17.627V2.039a1.039,1.039,0,0,0-2.078,0V15.548H2.039a1.039,1.039,0,0,0,0,2.078H15.548V31.136a1.039,1.039,0,0,0,2.078,0V17.627H31.136a1.039,1.039,0,0,0,0-2.078Z" fill="#71749d"/>
    <path id="Path_7137" data-name="Path 7137" d="M19,7.078v4.157a2.078,2.078,0,0,0,2.078,2.078h4.157a2.078,2.078,0,0,0,2.078-2.078V7.078A2.078,2.078,0,0,0,25.235,5H21.078A2.078,2.078,0,0,0,19,7.078Zm2.078,0h4.157v4.157H21.078Z" transform="translate(0.705 0.157)" fill="#71749d"/>
    <path id="Path_7138" data-name="Path 7138" d="M27.313,25.235V21.078A2.078,2.078,0,0,0,25.235,19H21.078A2.078,2.078,0,0,0,19,21.078v4.157a2.078,2.078,0,0,0,2.078,2.078h4.157A2.078,2.078,0,0,0,27.313,25.235Zm-6.235-4.157h4.157v4.157H21.078Z" transform="translate(0.705 0.705)" fill="#71749d"/>
    <path id="Path_7139" data-name="Path 7139" d="M11.235,19H7.078A2.078,2.078,0,0,0,5,21.078v4.157a2.078,2.078,0,0,0,2.078,2.078h4.157a2.078,2.078,0,0,0,2.078-2.078V21.078A2.078,2.078,0,0,0,11.235,19ZM7.078,25.235V21.078h4.157v4.157Z" transform="translate(0.157 0.705)" fill="#71749d"/>
    <path id="Path_7140" data-name="Path 7140" d="M7.078,5A2.078,2.078,0,0,0,5,7.078v4.157a2.078,2.078,0,0,0,2.078,2.078h4.157a2.078,2.078,0,0,0,2.078-2.078V7.078A2.078,2.078,0,0,0,11.235,5Zm0,6.235V7.078h4.157v4.157Z" transform="translate(0.157 0.157)" fill="#71749d"/>
  </g>
</svg>
