<svg xmlns="http://www.w3.org/2000/svg" width="87.368" height="12.261" viewBox="0 0 87.368 12.261">
  <g id="raida-logo" transform="translate(0 0)">
    <path id="Path_64" data-name="Path 64" d="M82.735.362a2.651,2.651,0,0,0-2.719.025,4.09,4.09,0,0,0-.937.925L71.313,12.261h4.032L81.323,3.8l5.785,8.46h4.141L83.686,1.305a3.815,3.815,0,0,0-.95-.943" transform="translate(-52.379 0)" fill="#fff"/>
    <path id="Path_65" data-name="Path 65" d="M266.374,1.306a3.806,3.806,0,0,0-.951-.943A2.652,2.652,0,0,0,262.7.387a4.086,4.086,0,0,0-.937.925L254,12.257h4.032L264.01,3.8l5.785,8.46h4.141Z" transform="translate(-186.568 0)" fill="#fff"/>
    <path id="Path_66" data-name="Path 66" d="M198.733,6.8a6.024,6.024,0,0,1-6.024,6.024h-2.28L187.757,9.9h4.953a3.1,3.1,0,0,0,0-6.2h-9.3L180.74.772h11.972A6.027,6.027,0,0,1,198.733,6.8" transform="translate(-132.758 -0.566)" fill="#fff"/>
    <path id="Path_67" data-name="Path 67" d="M11.315,3.587a1.95,1.95,0,1,1,0,3.9H6.41l5.116,5.339h4.285l-2.866-2.818A4.761,4.761,0,0,0,11.315.773H0L.161.945l2.52,2.642Z" transform="translate(0 -0.567)" fill="#fff"/>
    <rect id="Rectangle_45" data-name="Rectangle 45" width="3.404" height="12.052" transform="translate(41.795 0.206)" fill="#fff"/>
  </g>
</svg>
