<svg xmlns="http://www.w3.org/2000/svg" width="16.729" height="16.729" viewBox="0 0 16.729 16.729">
  <path id="sync" d="M16.73,2.823V5.8a1.046,1.046,0,0,1-1.046,1.046H12.7a1.046,1.046,0,1,1,0-2.091h.8A6.28,6.28,0,0,0,2.52,6.08,1.046,1.046,0,0,1,.573,5.317,8.369,8.369,0,0,1,14.638,2.83V2.823a1.046,1.046,0,0,1,2.091,0Zm-1.166,7.234a1.046,1.046,0,0,0-1.355.593A6.28,6.28,0,0,1,3.3,12.077h.724a1.046,1.046,0,1,0,0-2.091H1.046A1.046,1.046,0,0,0,0,11.031v2.98a1.046,1.046,0,1,0,2.091,0V13.9a8.414,8.414,0,0,0,1.5,1.338,8.367,8.367,0,0,0,12.561-3.825A1.046,1.046,0,0,0,15.564,10.057Z" fill="#abacbb"/>
</svg>
