<svg xmlns="http://www.w3.org/2000/svg" width="511.716" height="512" viewBox="0 0 511.716 512">
  <g id="withdrawal" transform="translate(-0.142)">
    <g id="Group_730" data-name="Group 730">
      <g id="Group_729" data-name="Group 729">
        <path id="Path_1034" data-name="Path 1034" d="M275.989,435.862V272.849H236.011V435.087l-53.828-53.828-28.268,28.268L256.388,512,358.862,409.527l-28.268-28.268Z" fill="#71749d"/>
        <rect id="Rectangle_220" data-name="Rectangle 220" width="263.854" height="39.978" transform="translate(68.104 175.902)" fill="#71749d"/>
        <path id="Path_1035" data-name="Path 1035" d="M451.891,0H60.109A60.035,60.035,0,0,0,.142,59.967V315.825a60.035,60.035,0,0,0,59.967,59.967h53.97V335.814H60.109A20.012,20.012,0,0,1,40.12,315.825V145.919H471.88V315.825a20.012,20.012,0,0,1-19.989,19.989H398.92v39.978h52.971a60.035,60.035,0,0,0,59.967-59.967V59.967A60.035,60.035,0,0,0,451.891,0ZM471.88,85.952H40.12V59.967A20.012,20.012,0,0,1,60.109,39.978H451.892a20.012,20.012,0,0,1,19.989,19.989V85.952Z" fill="#71749d"/>
      </g>
    </g>
  </g>
</svg>
