<svg xmlns="http://www.w3.org/2000/svg" width="576.944" height="576.944" viewBox="0 0 576.944 576.944">
  <g id="check-white" transform="translate(-1 -1)">
    <path id="Path_7152" data-name="Path 7152" d="M289.472,1C130.153,1,1,130.153,1,289.472S130.153,577.944,289.472,577.944,577.944,448.791,577.944,289.472C577.756,130.231,448.713,1.188,289.472,1Zm0,524.495c-130.352,0-236.023-105.671-236.023-236.023S159.12,53.449,289.472,53.449,525.495,159.12,525.495,289.472C525.35,419.764,419.764,525.35,289.472,525.495Z" transform="translate(0 0)" fill="#c1c3de"/>
    <path id="Path_7153" data-name="Path 7153" d="M251.519,15.4,112.686,142.668l-60.92-60.92a26.223,26.223,0,1,0-37.085,37.085L93.358,197.5a26.225,26.225,0,0,0,36.269.787L286.975,54.054A26.227,26.227,0,0,0,251.519,15.4Z" transform="translate(151.348 189.184)" fill="#c1c3de"/>
  </g>
</svg>
