<svg xmlns="http://www.w3.org/2000/svg" width="35.002" height="31.703" viewBox="0 0 35.002 31.703">
  <g id="credit-card" transform="translate(0 -24.066)">
    <path id="Path_7059" data-name="Path 7059" d="M34.944,42.25,32.287,27.182a3.775,3.775,0,0,0-4.368-3.058L5.131,28.142a3.774,3.774,0,0,0-3.058,4.368l.2,1.107A3.775,3.775,0,0,0,0,37.074V52a3.775,3.775,0,0,0,3.77,3.77H26.392A3.775,3.775,0,0,0,30.162,52V46.922l1.724-.3a3.77,3.77,0,0,0,3.058-4.368Zm-2.309,1.638a1.7,1.7,0,0,1-1.106.7l-1.367.241v-7.76a3.775,3.775,0,0,0-3.77-3.77H4.3l-.2-1.151a1.714,1.714,0,0,1,1.39-1.985l22.788-4.018a1.713,1.713,0,0,1,1.985,1.39l2.657,15.068A1.7,1.7,0,0,1,32.635,43.888Zm-6.243,9.824H3.77A1.716,1.716,0,0,1,2.056,52V44.69H28.105V52A1.716,1.716,0,0,1,26.392,53.712ZM3.77,35.36H26.392a1.716,1.716,0,0,1,1.714,1.714v.895H2.056v-.895A1.716,1.716,0,0,1,3.77,35.36Zm24.335,4.665v2.608H2.056V40.025Z" transform="translate(0 0)" fill="#71749d"/>
    <path id="Path_7060" data-name="Path 7060" d="M67,396.305H62.33a1.028,1.028,0,1,0,0,2.056H67a1.028,1.028,0,1,0,0-2.056Z" transform="translate(-57.1 -346.723)" fill="#71749d"/>
  </g>
</svg>
