<svg id="login" xmlns="http://www.w3.org/2000/svg" width="35.056" height="35.056" viewBox="0 0 35.056 35.056">
  <path id="Path_7061" data-name="Path 7061" d="M14.972,210.191H1.1A1.1,1.1,0,0,1,1.1,208H14.972a1.1,1.1,0,0,1,0,2.191Zm0,0" transform="translate(0 -193.759)" fill="#71749d"/>
  <path id="Path_7062" data-name="Path 7062" d="M123.767,141.131a1.1,1.1,0,0,1-.774-1.871l4.7-4.7-4.7-4.7a1.1,1.1,0,0,1,1.55-1.55l5.477,5.477a1.1,1.1,0,0,1,0,1.55l-5.477,5.477A1.094,1.094,0,0,1,123.767,141.131Zm0,0" transform="translate(-114.273 -119.222)" fill="#71749d"/>
  <path id="Path_7063" data-name="Path 7063" d="M301.589,35.133a2.924,2.924,0,0,1-2.921-2.921V5.92a2.94,2.94,0,0,1,1.978-2.774L309.421.22A2.952,2.952,0,0,1,313.274,3V29.29a2.941,2.941,0,0,1-1.976,2.772L302.52,34.99a3.056,3.056,0,0,1-.93.143Zm8.764-32.865a.859.859,0,0,0-.261.038L301.353,5.22a.753.753,0,0,0-.494.7V32.211a.769.769,0,0,0,.992.692l8.739-2.914a.756.756,0,0,0,.494-.7V3A.732.732,0,0,0,310.353,2.268Zm0,0" transform="translate(-278.219 -0.077)" fill="#71749d"/>
  <path id="Path_7064" data-name="Path 7064" d="M171.763,7.3a1.1,1.1,0,0,1-1.1-1.1V4.017A4.02,4.02,0,0,1,174.685,0h16.432a1.1,1.1,0,0,1,0,2.191H174.685a1.828,1.828,0,0,0-1.826,1.826V6.208A1.1,1.1,0,0,1,171.763,7.3Zm0,0" transform="translate(-158.983)" fill="#71749d"/>
  <path id="Path_7065" data-name="Path 7065" d="M180.527,348.635h-5.843a4.02,4.02,0,0,1-4.017-4.017v-2.191a1.1,1.1,0,0,1,2.191,0v2.191a1.828,1.828,0,0,0,1.826,1.826h5.843a1.1,1.1,0,0,1,0,2.191Zm0,0" transform="translate(-158.983 -317.962)" fill="#71749d"/>
</svg>
