<?xml version="1.0" encoding="utf-8"?>
<!-- Generator: Adobe Illustrator 26.0.1, SVG Export Plug-In . SVG Version: 6.00 Build 0)  -->
<svg version="1.1" id="Layer_1" xmlns="http://www.w3.org/2000/svg" xmlns:xlink="http://www.w3.org/1999/xlink" x="0px" y="0px"
	 viewBox="0 0 512 512" style="enable-background:new 0 0 512 512;" xml:space="preserve">
<style type="text/css">
	.st0{fill:#71749D;}
</style>
<path class="st0" d="M256,512c129.6-0.1,234.6-105.3,234.4-234.9C490.3,184,435.2,99.7,349.9,62.4c-10.8-4.8-23.4,0.1-28.1,10.9
	s0.1,23.4,10.9,28.1c0.1,0,0.1,0.1,0.2,0.1C430,143.9,474.4,257,432,354.2c-42.4,97.2-155.6,141.6-252.8,99.2
	C82,411,37.6,297.8,80,200.6c19.4-44.4,54.8-79.8,99.2-99.2c10.8-4.7,15.8-17.2,11.2-28c-4.7-10.8-17.2-15.8-28-11.2
	c-0.1,0-0.1,0.1-0.2,0.1C43.4,114.3-10.7,252.7,41.3,371.4C78.6,456.7,162.9,511.9,256,512z"/>
<path class="st0" d="M256,213.3c11.8,0,21.3-9.6,21.3-21.3V21.3C277.3,9.6,267.8,0,256,0c-11.8,0-21.3,9.6-21.3,21.3V192
	C234.7,203.8,244.2,213.3,256,213.3z"/>
</svg>
