<svg id="statement_transaction" xmlns="http://www.w3.org/2000/svg" width="64" height="64" viewBox="0 0 64 64">
  <path id="Path_7121" data-name="Path 7121" d="M62.125,47.625H53.75V6.875A6.883,6.883,0,0,0,46.875,0h-40A6.883,6.883,0,0,0,0,6.875v5A1.875,1.875,0,0,0,1.875,13.75H10V42.625H1.875a1.875,1.875,0,0,0,0,3.75H10V50.25H1.875A1.875,1.875,0,0,0,0,52.125v5A6.883,6.883,0,0,0,6.875,64h40a6.883,6.883,0,0,0,6.875-6.875v-5.75h8.375a1.875,1.875,0,0,0,0-3.75ZM10,57.125a3.125,3.125,0,0,1-6.25,0V54H10ZM10,10H3.75V6.875a3.125,3.125,0,0,1,6.25,0ZM50,47.625H40.4l1.8-1.8a1.875,1.875,0,1,0-2.652-2.652l-5,5a1.875,1.875,0,0,0,0,2.652l5,5A1.875,1.875,0,0,0,42.2,53.174l-1.8-1.8H50v5.75a3.129,3.129,0,0,1-3.125,3.125H13a6.835,6.835,0,0,0,.752-3.125V46.375H23.6l-1.8,1.8a1.875,1.875,0,0,0,2.652,2.652l5-5a1.875,1.875,0,0,0,0-2.652l-5-5A1.875,1.875,0,1,0,21.8,40.826l1.8,1.8H13.75V6.875A6.835,6.835,0,0,0,13,3.75H46.875A3.129,3.129,0,0,1,50,6.875Z" fill="#c1c3de"/>
  <path id="Path_7122" data-name="Path 7122" d="M141.875,64.75h18.75a1.875,1.875,0,0,0,0-3.75h-18.75a1.875,1.875,0,0,0,0,3.75Z" transform="translate(-122.5 -53.375)" fill="#c1c3de"/>
  <path id="Path_7123" data-name="Path 7123" d="M166.875,121h-25a1.875,1.875,0,0,0,0,3.75h25a1.875,1.875,0,0,0,0-3.75Z" transform="translate(-122.5 -105.875)" fill="#c1c3de"/>
  <path id="Path_7124" data-name="Path 7124" d="M166.875,181h-25a1.875,1.875,0,0,0,0,3.75h25a1.875,1.875,0,0,0,0-3.75Z" transform="translate(-122.5 -158.375)" fill="#c1c3de"/>
  <path id="Path_7125" data-name="Path 7125" d="M210.625,241h-18.75a1.875,1.875,0,0,0,0,3.75h18.75a1.875,1.875,0,0,0,0-3.75Z" transform="translate(-166.25 -210.875)" fill="#c1c3de"/>
</svg>
