<svg xmlns="http://www.w3.org/2000/svg" width="72.715" height="72.72" viewBox="0 0 72.715 72.72">
  <g id="wealth" transform="translate(0 0.001)">
    <g id="_059---Money-Bag" data-name="059---Money-Bag" transform="translate(0 -0.001)">
      <path id="Shape" d="M56.031,49.063a11.635,11.635,0,0,0,2.225-6.794A1.212,1.212,0,0,0,57.1,41a1.225,1.225,0,0,0-1.269,1.153,9.281,9.281,0,0,1-1.705,5.405C51.765,50.545,47.278,50.7,46.4,50.7a1.212,1.212,0,0,0,0,2.424C47.473,53.12,52.972,52.925,56.031,49.063Z" transform="translate(9.58 7.48)" fill="#c1c3de"/>
      <path id="Shape-2" data-name="Shape" d="M34.424,37.544a1.212,1.212,0,0,0-2.424,0,4.848,4.848,0,0,0,4.848,4.848V43.6a1.212,1.212,0,0,0,2.424,0V42.392a4.848,4.848,0,0,0,0-9.7V27.848A2.424,2.424,0,0,1,41.7,30.272a1.212,1.212,0,1,0,2.424,0,4.848,4.848,0,0,0-4.848-4.848V24.212a1.212,1.212,0,1,0-2.424,0v1.212a4.848,4.848,0,1,0,0,9.7v4.848A2.424,2.424,0,0,1,34.424,37.544Zm0-7.272a2.424,2.424,0,0,1,2.424-2.424V32.7A2.424,2.424,0,0,1,34.424,30.272Zm4.848,4.848a2.424,2.424,0,1,1,0,4.848Z" transform="translate(6.783 3.665)" fill="#c1c3de"/>
      <path id="Shape-3" data-name="Shape" d="M71.706,41.93C68.72,29.239,62.08,21.886,57.286,18.046c6.013.453,7.948,2.955,8.005,3.03A1.212,1.212,0,0,0,67.3,19.717c-.087-.131-1.771-2.535-6.666-3.636a5.559,5.559,0,0,0,2.028-4.173,6.224,6.224,0,0,0-4.635-5.645,22.108,22.108,0,0,0,.162-2.638A2.424,2.424,0,0,0,54.817,1.4,6.924,6.924,0,0,0,53.13,2.479a3.124,3.124,0,0,1-2.266.945A3.128,3.128,0,0,1,48.6,2.479a5.575,5.575,0,0,0-7.565,0,3.187,3.187,0,0,1-4.53,0A6.935,6.935,0,0,0,34.823,1.4a2.424,2.424,0,0,0-3.366,2.228c0,3.015.6,8.394,4.372,12.006A33.436,33.436,0,0,0,30.3,19.838V10.7c0-2.763-3.909-4.848-9.09-4.848S12.12,7.933,12.12,10.7V22.907c-4.25.424-7.272,2.333-7.272,4.757V58.491C1.92,59.277,0,60.872,0,62.811v6.06c0,2.763,3.909,4.848,9.09,4.848,4.633,0,8.241-1.669,8.953-4a13.614,13.614,0,0,0,6.8,1.576c5.181,0,9.09-2.085,9.09-4.848V50.692c0-2.763-3.909-4.848-9.09-4.848a17.984,17.984,0,0,0-1.818.091V27.664c0-2.654-3.608-4.676-8.484-4.832v-8.78a13.8,13.8,0,0,0,6.666,1.492,13.8,13.8,0,0,0,6.666-1.492v8.266c-.8.893-1.6,1.866-2.392,2.945a1.212,1.212,0,0,0,1.954,1.431,36.739,36.739,0,0,1,2.5-3.03c.01-.011.018-.022.028-.032a31.861,31.861,0,0,1,8.044-6.447,7.691,7.691,0,0,0,1.87.622l-3.124,2.916A1.212,1.212,0,1,0,38.409,22.5l4.848-4.522h.387V21.61a1.212,1.212,0,0,0,2.424,0V17.968h.387L51.3,22.49a1.212,1.212,0,1,0,1.656-1.772L49.813,17.79a7.635,7.635,0,0,0,1.858-.624c3.2,1.733,13.733,8.581,17.677,25.32,1.715,7.286,1.1,12.86-1.836,16.563-3.752,4.733-10.263,4.975-11.53,4.975h-17.2a1.212,1.212,0,0,0,0,2.424h17.2c2.06,0,9.1-.425,13.429-5.894,3.415-4.313,4.189-10.579,2.3-18.623ZM9.09,60.387c4.008,0,6.666,1.454,6.666,2.424S13.1,65.235,9.09,65.235s-6.666-1.454-6.666-2.424S5.082,60.387,9.09,60.387Zm0,10.908c-4.008,0-6.666-1.454-6.666-2.424v-2.7A13.8,13.8,0,0,0,9.09,67.659a13.8,13.8,0,0,0,6.666-1.492v2.7C15.756,69.841,13.1,71.3,9.09,71.3Zm15.756-2.424c-4.008,0-6.666-1.454-6.666-2.424v-12.4a13.8,13.8,0,0,0,6.666,1.492,13.8,13.8,0,0,0,6.666-1.492v12.4C31.512,67.417,28.854,68.871,24.846,68.871Zm6.666-18.18c0,.97-2.658,2.424-6.666,2.424s-6.666-1.454-6.666-2.424,2.658-2.424,6.666-2.424S31.512,49.722,31.512,50.692Zm-15.756,0v8.764A13.8,13.8,0,0,0,9.09,57.963a17.983,17.983,0,0,0-1.818.091V31.02a13.8,13.8,0,0,0,6.666,1.492A13.8,13.8,0,0,0,20.6,31.02V46.371C17.676,47.157,15.756,48.752,15.756,50.692ZM20.6,27.664c0,.97-2.658,2.424-6.666,2.424s-6.666-1.454-6.666-2.424S9.93,25.24,13.938,25.24,20.6,26.694,20.6,27.664ZM21.21,13.12c-4.008,0-6.666-1.454-6.666-2.424S17.2,8.272,21.21,8.272s6.666,1.454,6.666,2.424S25.218,13.12,21.21,13.12Zm39.026-1.212c0,1.986-2.151,3.617-4.848,3.636a6.259,6.259,0,0,1-1.34-.154,14.36,14.36,0,0,0,3.54-6.7,3.714,3.714,0,0,1,2.648,3.22ZM34.988,4.369a5.571,5.571,0,0,0,7.56,0,3.19,3.19,0,0,1,4.533,0,5.465,5.465,0,0,0,3.783,1.479,5.47,5.47,0,0,0,3.783-1.479,5.076,5.076,0,0,1,1.111-.747c0,2.251-.418,7.815-4.323,10.865a5.2,5.2,0,0,1-3.042,1.041,26.214,26.214,0,0,0,2.474-5.722,1.213,1.213,0,0,0-2.337-.65,22.234,22.234,0,0,1-3.057,6.386H44.227a22.444,22.444,0,0,1-3.058-6.386,1.212,1.212,0,1,0-2.335.651,26.232,26.232,0,0,0,2.476,5.727A5.212,5.212,0,0,1,38.2,14.49C34.3,11.44,33.881,5.876,33.881,3.633a4.74,4.74,0,0,1,1.107.737Z" transform="translate(0 -0.999)" fill="#c1c3de"/>
      <path id="Shape-4" data-name="Shape" d="M56.031,49.063a11.635,11.635,0,0,0,2.225-6.794A1.212,1.212,0,0,0,57.1,41a1.228,1.228,0,0,0-1.269,1.153,9.281,9.281,0,0,1-1.705,5.405C51.765,50.545,47.278,50.7,46.4,50.7a1.212,1.212,0,0,0,0,2.424C47.473,53.12,52.972,52.925,56.031,49.063Z" transform="translate(9.58 7.48)" fill="#c1c3de"/>
    </g>
  </g>
</svg>
