<svg xmlns="http://www.w3.org/2000/svg" width="21.63" height="21.631" viewBox="0 0 21.63 21.631">
  <g id="close" transform="translate(-0.039 0.001)" opacity="0.35">
    <path id="Path_7142" data-name="Path 7142" d="M1.151,21.63a1.113,1.113,0,0,1-.786-1.9L19.77.325A1.113,1.113,0,0,1,21.343,1.9L1.939,21.3a1.116,1.116,0,0,1-.788.326Zm0,0" transform="translate(0)" fill="#fff"/>
    <path id="Path_7143" data-name="Path 7143" d="M20.557,21.63a1.1,1.1,0,0,1-.786-.326L.365,1.9A1.113,1.113,0,0,1,1.939.325l19.4,19.4a1.113,1.113,0,0,1-.786,1.9Zm0,0" transform="translate(0 0)" fill="#fff"/>
  </g>
</svg>
