<svg xmlns="http://www.w3.org/2000/svg" width="34.424" height="27.284" viewBox="0 0 34.424 27.284">
  <g id="debit-card_drop" transform="translate(0 -53.1)">
    <path id="Path_7119" data-name="Path 7119" d="M33.812,56.04a2.569,2.569,0,0,0-1.759-.907L7.812,53.109a2.585,2.585,0,0,0-2.791,2.353l-.488,4.576H2.585A2.588,2.588,0,0,0,0,62.623V77.8a2.588,2.588,0,0,0,2.585,2.585H26.912A2.588,2.588,0,0,0,29.5,77.8V75.336l.863.072q.109.009.217.009a2.589,2.589,0,0,0,2.575-2.37l1.263-15.122a2.569,2.569,0,0,0-.6-1.885ZM2.585,61.382H26.912a1.242,1.242,0,0,1,1.241,1.241v1.383H1.345V62.623a1.242,1.242,0,0,1,1.241-1.241ZM1.345,65.35H28.152V68.14H1.345ZM26.912,79.038H2.585A1.242,1.242,0,0,1,1.345,77.8V69.484H28.152V77.8a1.242,1.242,0,0,1-1.241,1.241Zm6.163-21.226L31.812,72.935a1.242,1.242,0,0,1-1.34,1.133l-.975-.081V62.623a2.588,2.588,0,0,0-2.586-2.585H5.885l.473-4.44v-.015A1.242,1.242,0,0,1,7.7,54.449l24.242,2.024a1.241,1.241,0,0,1,1.133,1.34Z" fill="#fff"/>
    <path id="Path_7120" data-name="Path 7120" d="M277.774,326.532H271.3a.672.672,0,0,0-.672.672v4.222a.672.672,0,0,0,.672.672h6.471a.672.672,0,0,0,.672-.672V327.2A.672.672,0,0,0,277.774,326.532Zm-.672,4.222h-5.126v-2.877H277.1Z" transform="translate(-252.435 -255.049)" fill="#fff"/>
  </g>
</svg>
