<svg xmlns="http://www.w3.org/2000/svg" width="38.573" height="27.122" viewBox="0 0 38.573 27.122">
  <g id="email" transform="translate(0 -76)" opacity="0.6">
    <g id="Group_861" data-name="Group 861" transform="translate(0 76)">
      <path id="Path_7146" data-name="Path 7146" d="M35.183,76H3.39A3.4,3.4,0,0,0,0,79.39V99.731a3.4,3.4,0,0,0,3.39,3.39H35.183a3.4,3.4,0,0,0,3.39-3.39V79.39A3.4,3.4,0,0,0,35.183,76Zm-.521,2.26-14.5,14.547a1.32,1.32,0,0,1-1.751,0L3.911,78.26ZM2.26,99.316V79.806l9.724,9.755Zm1.651,1.546,9.668-9.7L16.81,94.4a3.577,3.577,0,0,0,4.953,0l3.231-3.241,9.668,9.7Zm32.4-1.546-9.724-9.755,9.724-9.755Z" transform="translate(0 -76)" fill="#fff"/>
    </g>
  </g>
</svg>
