<svg xmlns="http://www.w3.org/2000/svg" xmlns:xlink="http://www.w3.org/1999/xlink" width="238.879" height="53.818" viewBox="0 0 238.879 53.818">
  <defs>
    <clipPath id="clip-path">
      <rect id="Rectangle_3" data-name="Rectangle 3" width="238.879" height="53.818" transform="translate(52.656)" fill="#fff"/>
    </clipPath>
  </defs>
  <g id="logo" transform="translate(-52.656)" opacity="0.75" clip-path="url(#clip-path)">
    <path id="Path_1" data-name="Path 1" d="M0,247.846c0,5.3,3.857,9.554,9.9,9.554a10.326,10.326,0,0,0,7.54-2.993l-1.786-3.223a8.27,8.27,0,0,1-5.352,2.3,5.567,5.567,0,0,1-5.7-5.7,5.429,5.429,0,0,1,5.583-5.643,7.146,7.146,0,0,1,4.719,1.957L16.92,241A9.212,9.212,0,0,0,9.9,238.234,9.452,9.452,0,0,0,0,247.846m19.223,3.4c0,5.237,3.108,5.871,5.583,5.871A9.921,9.921,0,0,0,26.245,257v-3.971a3.884,3.884,0,0,1-.691.058c-1.151,0-1.842-.518-1.842-2.532V231.559H19.223Zm7.654-3.4c0,5.583,4.489,9.554,10.072,9.554,5.525,0,10.014-3.971,10.014-9.554s-4.489-9.612-10.072-9.612c-5.525,0-10.014,4.029-10.014,9.612m4.6,0a5.442,5.442,0,1,1,2.664,4.869,5.445,5.445,0,0,1-2.664-4.869m17.5,2.59c0,4.949,2.417,6.964,6.331,6.964a7.072,7.072,0,0,0,6.332-3.8H61.7s-.057.576-.057,1.266v2.071h4.375V238.7H61.469v8.345c0,3.281-1.842,6.159-5.122,6.159-2.245,0-2.82-1.5-2.82-3.684V238.7H48.979Zm19.4-2.59c0,5.643,3.166,9.554,8.115,9.554a6.339,6.339,0,0,0,5.7-3.166h.058a12.083,12.083,0,0,0-.058,1.209v1.5H86.5V231.558H81.955v9.036H81.9s-1.266-2.357-5.237-2.357c-4.834,0-8.286,3.8-8.286,9.612m4.6,0c0-3.626,2.071-5.7,4.546-5.7,3.051,0,4.546,2.82,4.546,5.643,0,4.029-2.187,5.755-4.546,5.755-2.705,0-4.546-2.244-4.546-5.7m15.827,0c0,5.3,3.857,9.554,9.9,9.554a10.484,10.484,0,0,0,7.54-2.993l-1.786-3.223a8.459,8.459,0,0,1-5.352,2.3,5.532,5.532,0,0,1-5.7-5.7,5.412,5.412,0,0,1,5.525-5.643,7.2,7.2,0,0,1,4.777,1.957L105.726,241a9.214,9.214,0,0,0-7.022-2.762,9.451,9.451,0,0,0-9.9,9.612m18.072,0c0,5.583,4.489,9.554,10.072,9.554,5.525,0,10.014-3.971,10.014-9.554s-4.489-9.612-10.072-9.612c-5.525,0-10.014,4.029-10.014,9.612m4.6,0a5.443,5.443,0,1,1,2.658,4.886,5.445,5.445,0,0,1-2.658-4.886m17.729-12.262h4.547v-4.029H129.21Zm0,21.352h4.547V238.7H129.21Zm8.173,0h4.548v-8.346a6.976,6.976,0,0,1,.345-2.475,5.01,5.01,0,0,1,4.892-3.684c2.3,0,2.877,1.5,2.877,3.684v10.82h4.546V245.2c0-4.834-2.3-6.964-6.331-6.964a7.231,7.231,0,0,0-6.5,3.8H141.7s.058-.576.058-1.209V238.7h-4.374Z" transform="translate(136.474 -217.272)" fill="#fff" stroke="rgba(0,0,0,0)" stroke-width="1"/>
    <path id="Path_2" data-name="Path 2" d="M186.029,0a29.929,29.929,0,0,1,9.094,1.669A34.385,34.385,0,0,1,203.065,5.7a33.948,33.948,0,0,1,6.5,6.043,31,31,0,0,1,4.777,7.885,27.286,27.286,0,0,1,2.187,9.036c0,.286.058.518.058.806a12.324,12.324,0,0,1-2.763,24.346h-48.4a17.136,17.136,0,0,1-3.571-33.9,21.317,21.317,0,0,1,1.266-5.007A22.633,22.633,0,0,1,168.7,6.392a23.793,23.793,0,0,1,8-4.892A25.99,25.99,0,0,1,186.029,0M202.49,6.564a32.7,32.7,0,0,0-7.484-3.8,26.9,26.9,0,0,0-8.634-1.439,23.663,23.663,0,0,0-8.631,1.439,20.456,20.456,0,0,0-7.424,4.719,20.667,20.667,0,0,0-5.065,8,22.853,22.853,0,0,0-1.036,10.935A26.962,26.962,0,0,0,168.7,37.932a31.243,31.243,0,0,0,9.151,8.864,29.542,29.542,0,0,0,11.511,4.316,24.357,24.357,0,0,0,11.511-1.036,20.7,20.7,0,0,0,13.179-13.238,23.454,23.454,0,0,0,1.092-8.517,26.155,26.155,0,0,0-2.014-8.576,29.709,29.709,0,0,0-4.486-7.482,32.188,32.188,0,0,0-6.159-5.7" transform="translate(-94.898 0.001)" fill="#fff" stroke="rgba(0,0,0,0)" stroke-width="1"/>
    <path id="Path_3" data-name="Path 3" d="M242.961,13.375a17.839,17.839,0,0,1,1.786.058c.461,1.381.864,2.762,1.324,4.2-.633-.057-1.209-.057-1.841-.057a9.981,9.981,0,0,0-1.842.172c-.4-1.439-.806-2.877-1.209-4.259.576-.058,1.209-.115,1.786-.115m6.447.864a27,27,0,0,1,10.475,5.7,26.34,26.34,0,0,1,7.137,10.014A22.366,22.366,0,0,1,268.4,42.095a18.185,18.185,0,0,1-6.159,10.763c-.691-2.187-1.381-4.259-2.071-6.389a12.734,12.734,0,0,0,2.935-4.374,14.8,14.8,0,0,0,.978-7.309c-1.439.23-2.935.518-4.489.748a9.843,9.843,0,0,1-.864,3.626,9.439,9.439,0,0,1-6.561,5.122,12.682,12.682,0,0,1-9.554-2.014,13.4,13.4,0,0,1-5.929-8.286,9.518,9.518,0,0,1,8.864-12.143,12.853,12.853,0,0,1,8.113,2.412A14.225,14.225,0,0,1,256.6,26.9c1.5-.173,2.936-.286,4.374-.461a19.739,19.739,0,0,0-5.353-5.352,19.271,19.271,0,0,0-4.719-2.417c-.518-1.5-1.036-2.993-1.5-4.429m8.346,41.44c-.691.286-1.324.518-2.014.748s-1.439.4-2.129.576c-.633-2.245-1.209-4.429-1.841-6.561a8.714,8.714,0,0,0,2.128-.406,19.437,19.437,0,0,0,1.957-.633c.633,2.014,1.209,4.143,1.9,6.274m-10.187,1.669A26.477,26.477,0,0,1,232.2,50.555a25.658,25.658,0,0,1-8.232-14.791,19.266,19.266,0,0,1,2.762-14.044,18.765,18.765,0,0,1,9.786-7.367c.461,1.611.864,3.166,1.266,4.834a13.7,13.7,0,0,0-4.087,3.166,14.44,14.44,0,0,0-3.05,12.489,20.357,20.357,0,0,0,15.137,15.31c.576,2.3,1.151,4.719,1.786,7.194" transform="translate(-150.794 -9.917)" fill="#fff" stroke="rgba(0,0,0,0)" stroke-width="1" fill-rule="evenodd"/>
  </g>
</svg>
