<svg xmlns="http://www.w3.org/2000/svg" width="24.884" height="34.354" viewBox="0 0 24.884 34.354">
  <g id="maps-and-flags" transform="translate(-70.573)" opacity="0.6">
    <g id="Group_858" data-name="Group 858" transform="translate(70.573)">
      <g id="Group_857" data-name="Group 857">
        <path id="Path_7144" data-name="Path 7144" d="M83.015,0A12.456,12.456,0,0,0,70.573,12.442c0,8.514,11.134,21.013,11.608,21.541a1.121,1.121,0,0,0,1.667,0c.474-.528,11.608-13.027,11.608-21.541A12.456,12.456,0,0,0,83.015,0Zm0,31.518c-3.747-4.451-10.2-13.233-10.2-19.076a10.2,10.2,0,1,1,20.4,0C93.216,18.285,86.763,27.065,83.015,31.518Z" transform="translate(-70.573)" fill="#fff"/>
      </g>
    </g>
    <g id="Group_860" data-name="Group 860" transform="translate(76.755 6.182)">
      <g id="Group_859" data-name="Group 859" transform="translate(0)">
        <path id="Path_7145" data-name="Path 7145" d="M168.968,92.134a6.26,6.26,0,1,0,6.26,6.26A6.267,6.267,0,0,0,168.968,92.134Zm0,10.279a4.019,4.019,0,1,1,4.019-4.019A4.024,4.024,0,0,1,168.968,102.413Z" transform="translate(-162.708 -92.134)" fill="#fff"/>
      </g>
    </g>
  </g>
</svg>
