<svg xmlns="http://www.w3.org/2000/svg" width="78.951" height="54.823" viewBox="0 0 78.951 54.823">
  <g id="small_logo" transform="translate(-52.86 0.506)" opacity="0.75">
    <path id="Path_2" data-name="Path 2" d="M186.029,0a29.929,29.929,0,0,1,9.094,1.669A34.385,34.385,0,0,1,203.065,5.7a33.948,33.948,0,0,1,6.5,6.043,31,31,0,0,1,4.777,7.885,27.286,27.286,0,0,1,2.187,9.036c0,.286.058.518.058.806a12.324,12.324,0,0,1-2.763,24.346h-48.4a17.136,17.136,0,0,1-3.571-33.9,21.317,21.317,0,0,1,1.266-5.007A22.633,22.633,0,0,1,168.7,6.392a23.793,23.793,0,0,1,8-4.892A25.99,25.99,0,0,1,186.029,0M202.49,6.564a32.7,32.7,0,0,0-7.484-3.8,26.9,26.9,0,0,0-8.634-1.439,23.663,23.663,0,0,0-8.631,1.439,20.456,20.456,0,0,0-7.424,4.719,20.667,20.667,0,0,0-5.065,8,22.853,22.853,0,0,0-1.036,10.935A26.962,26.962,0,0,0,168.7,37.932a31.243,31.243,0,0,0,9.151,8.864,29.542,29.542,0,0,0,11.511,4.316,24.357,24.357,0,0,0,11.511-1.036,20.7,20.7,0,0,0,13.179-13.238,23.454,23.454,0,0,0,1.092-8.517,26.154,26.154,0,0,0-2.014-8.576,29.709,29.709,0,0,0-4.486-7.482,32.187,32.187,0,0,0-6.159-5.7" transform="translate(-94.898 0.001)" fill="#fff" stroke="rgba(0,0,0,0)" stroke-width="1"/>
    <path id="Path_3" data-name="Path 3" d="M242.961,13.375a17.839,17.839,0,0,1,1.786.058c.461,1.381.864,2.762,1.324,4.2-.633-.057-1.209-.057-1.841-.057a9.981,9.981,0,0,0-1.842.172c-.4-1.439-.806-2.877-1.209-4.259.576-.058,1.209-.115,1.786-.115m6.447.864a27,27,0,0,1,10.475,5.7,26.34,26.34,0,0,1,7.137,10.014A22.366,22.366,0,0,1,268.4,42.1a18.185,18.185,0,0,1-6.159,10.763c-.691-2.187-1.381-4.259-2.071-6.389A12.734,12.734,0,0,0,263.1,42.1a14.8,14.8,0,0,0,.978-7.309c-1.439.23-2.935.518-4.489.748a9.843,9.843,0,0,1-.864,3.626,9.439,9.439,0,0,1-6.561,5.122,12.682,12.682,0,0,1-9.554-2.014,13.4,13.4,0,0,1-5.929-8.286,9.518,9.518,0,0,1,8.864-12.143,12.853,12.853,0,0,1,8.113,2.412A14.226,14.226,0,0,1,256.6,26.9c1.5-.173,2.936-.286,4.374-.461a19.739,19.739,0,0,0-5.353-5.352A19.271,19.271,0,0,0,250.9,18.67c-.518-1.5-1.036-2.993-1.5-4.429m8.346,41.44c-.691.286-1.324.518-2.014.748s-1.439.4-2.129.576c-.633-2.245-1.209-4.429-1.841-6.561a8.714,8.714,0,0,0,2.128-.406,19.439,19.439,0,0,0,1.957-.633c.633,2.014,1.209,4.143,1.9,6.274m-10.187,1.669A26.477,26.477,0,0,1,232.2,50.555a25.658,25.658,0,0,1-8.232-14.791A19.266,19.266,0,0,1,226.73,21.72a18.765,18.765,0,0,1,9.786-7.367c.461,1.611.864,3.166,1.266,4.834a13.7,13.7,0,0,0-4.087,3.166,14.44,14.44,0,0,0-3.05,12.489,20.357,20.357,0,0,0,15.137,15.31c.576,2.3,1.151,4.719,1.786,7.194" transform="translate(-150.794 -9.917)" fill="#fff" stroke="rgba(0,0,0,0)" stroke-width="1" fill-rule="evenodd"/>
  </g>
</svg>
