<svg xmlns="http://www.w3.org/2000/svg" width="33.845" height="33.973" viewBox="0 0 33.845 33.973">
  <g id="telephone" transform="translate(-0.912)" opacity="0.6">
    <path id="Path_7147" data-name="Path 7147" d="M7.77,22.583a36.042,36.042,0,0,0,11.988,9.391,18.659,18.659,0,0,0,6.709,1.985c.162.007.317.014.479.014a5.556,5.556,0,0,0,4.308-1.851.154.154,0,0,0,.028-.035,18.137,18.137,0,0,1,1.359-1.408c.331-.317.669-.648.993-.986a3.4,3.4,0,0,0-.014-5.061L29.389,20.4a3.424,3.424,0,0,0-2.478-1.14A3.54,3.54,0,0,0,24.4,20.394l-2.52,2.52c-.232-.134-.472-.253-.7-.366a8.7,8.7,0,0,1-.774-.422,26.672,26.672,0,0,1-6.371-5.8,15.359,15.359,0,0,1-2.154-3.435c.662-.6,1.281-1.225,1.88-1.837.211-.218.429-.436.648-.655a3.609,3.609,0,0,0,1.169-2.534,3.58,3.58,0,0,0-1.169-2.534l-2.1-2.1c-.246-.246-.479-.486-.718-.732-.465-.479-.95-.971-1.429-1.415A3.509,3.509,0,0,0,7.693,0,3.613,3.613,0,0,0,5.187,1.091L2.554,3.724A5.409,5.409,0,0,0,.942,7.187a13.028,13.028,0,0,0,.978,5.632A32.763,32.763,0,0,0,7.77,22.583ZM2.659,7.335A3.724,3.724,0,0,1,3.779,4.942L6.4,2.323a1.9,1.9,0,0,1,1.3-.6,1.8,1.8,0,0,1,1.267.612c.472.436.915.894,1.394,1.38.239.246.486.493.732.746l2.1,2.1a1.912,1.912,0,0,1,.662,1.316,1.912,1.912,0,0,1-.662,1.316c-.218.218-.436.443-.655.662-.655.662-1.267,1.288-1.943,1.887l-.035.035A1.376,1.376,0,0,0,10.2,13.34c.007.021.014.035.021.056a16.568,16.568,0,0,0,2.471,4.02A28.15,28.15,0,0,0,19.477,23.6a10.076,10.076,0,0,0,.929.507,8.705,8.705,0,0,1,.774.422c.028.014.049.028.077.042a1.472,1.472,0,0,0,.683.176,1.493,1.493,0,0,0,1.049-.479l2.633-2.633a1.863,1.863,0,0,1,1.288-.627,1.768,1.768,0,0,1,1.246.627L32.4,25.87a1.7,1.7,0,0,1-.021,2.654c-.3.317-.605.619-.936.936a20.272,20.272,0,0,0-1.471,1.528,3.865,3.865,0,0,1-3.02,1.281c-.12,0-.246-.007-.366-.014a16.951,16.951,0,0,1-6.068-1.816A34.239,34.239,0,0,1,9.108,21.5a31.36,31.36,0,0,1-5.561-9.257A11.354,11.354,0,0,1,2.659,7.335Z" transform="translate(0 0)" fill="#fff"/>
  </g>
</svg>
