<svg id="tick_circle" xmlns="http://www.w3.org/2000/svg" width="56" height="56" viewBox="0 0 56 56">
  <g id="Group_867" data-name="Group 867" transform="translate(13.471 18.087)">
    <g id="Group_866" data-name="Group 866">
      <path id="Path_7148" data-name="Path 7148" d="M151.67,166.072a2.27,2.27,0,0,0-3.209-.085l-14.493,13.745-6.913-7.1A2.27,2.27,0,0,0,123.8,175.8l8.476,8.7a2.271,2.271,0,0,0,3.189.064l16.119-15.287A2.27,2.27,0,0,0,151.67,166.072Z" transform="translate(-123.158 -165.364)" fill="#fff"/>
    </g>
  </g>
  <g id="Group_869" data-name="Group 869">
    <g id="Group_868" data-name="Group 868">
      <path id="Path_7149" data-name="Path 7149" d="M28,0A28,28,0,1,0,56,28,28.032,28.032,0,0,0,28,0Zm0,51.46A23.46,23.46,0,1,1,51.46,28,23.486,23.486,0,0,1,28,51.46Z" fill="#fff"/>
    </g>
  </g>
</svg>
