<svg xmlns="http://www.w3.org/2000/svg" width="25.163" height="34.967" viewBox="0 0 25.163 34.967">
  <g id="transaction" transform="translate(-6 -2)">
    <path id="Path_7127" data-name="Path 7127" d="M13.258,9.516h7.549a1.258,1.258,0,1,0,0-2.516H13.258a1.258,1.258,0,0,0,0,2.516Z" transform="translate(1.549 1.291)" fill="#71749d" fill-rule="evenodd"/>
    <path id="Path_7128" data-name="Path 7128" d="M11.258,13.516H23.84a1.258,1.258,0,0,0,0-2.516H11.258a1.258,1.258,0,0,0,0,2.516Z" transform="translate(1.033 2.323)" fill="#71749d" fill-rule="evenodd"/>
    <path id="Path_7129" data-name="Path 7129" d="M11.258,17.516H23.84a1.258,1.258,0,0,0,0-2.516H11.258a1.258,1.258,0,0,0,0,2.516Z" transform="translate(1.033 3.356)" fill="#71749d" fill-rule="evenodd"/>
    <path id="Path_7130" data-name="Path 7130" d="M11.258,21.516H23.84a1.258,1.258,0,0,0,0-2.516H11.258a1.258,1.258,0,0,0,0,2.516Z" transform="translate(1.033 4.389)" fill="#71749d" fill-rule="evenodd"/>
    <path id="Path_7131" data-name="Path 7131" d="M31.163,33.715V5.774A3.776,3.776,0,0,0,27.389,2H9.774A3.776,3.776,0,0,0,6,5.774v27.94a2.193,2.193,0,0,0,3.743,1.55l2.016-2.016a.988.988,0,0,1,1.316-.073l4.137,3.31a2.194,2.194,0,0,0,2.74,0l4.137-3.31a.988.988,0,0,1,1.316.073l2.016,2.016a2.193,2.193,0,0,0,3.743-1.55Zm-2.516-.781V5.774a1.259,1.259,0,0,0-1.258-1.258H9.774A1.259,1.259,0,0,0,8.516,5.774V32.933L9.98,31.47a3.5,3.5,0,0,1,4.667-.259l3.936,3.148,3.936-3.148a3.5,3.5,0,0,1,4.667.259Z" fill="#71749d" fill-rule="evenodd"/>
  </g>
</svg>
