<svg width="16" height="16" viewBox="0 0 16 16" fill="none" xmlns="http://www.w3.org/2000/svg">
<path fill-rule="evenodd" clip-rule="evenodd" d="M4 0.25C4.41421 0.25 4.75 0.585786 4.75 1V2H11.25V1C11.25 0.585786 11.5858 0.25 12 0.25C12.4142 0.25 12.75 0.585786 12.75 1V2H14C15.1046 2 16 2.89543 16 4V14C16 15.1046 15.1046 16 14 16H11H2C0.895431 16 0 15.1046 0 14V4C0 2.89543 0.895431 2 2 2H3.25V1C3.25 0.585786 3.58579 0.25 4 0.25ZM2 3.5H14C14.2761 3.5 14.5 3.72386 14.5 4V5.25H1.5V4C1.5 3.72386 1.72386 3.5 2 3.5ZM1.5 6.75V14C1.5 14.2761 1.72386 14.5 2 14.5H11H14C14.2761 14.5 14.5 14.2761 14.5 14V6.75H1.5Z" fill="#7FA8FF"/>
</svg>
