<svg xmlns="http://www.w3.org/2000/svg" width="35.081" height="29.743" viewBox="0 0 35.081 29.743">
  <g id="vault" transform="translate(0 -38.957)">
    <g id="Group_9" data-name="Group 9" transform="translate(16.015 52.684)">
      <g id="Group_8" data-name="Group 8" transform="translate(0 0)">
        <circle id="Ellipse_1" data-name="Ellipse 1" cx="1.144" cy="1.144" r="1.144" fill="#71749d"/>
      </g>
    </g>
    <g id="Group_11" data-name="Group 11" transform="translate(0 38.957)">
      <g id="Group_10" data-name="Group 10" transform="translate(0 0)">
        <path id="Path_7051" data-name="Path 7051" d="M31.649,38.957H8.008a3.436,3.436,0,0,0-3.432,3.432v1.144H1.144A1.144,1.144,0,0,0,0,44.677V51.54a1.144,1.144,0,0,0,1.144,1.144H4.576v2.288H1.144A1.144,1.144,0,0,0,0,56.116V62.98a1.144,1.144,0,0,0,1.144,1.144H4.576v1.144A3.436,3.436,0,0,0,8.008,68.7H31.649a3.436,3.436,0,0,0,3.432-3.432V42.389A3.436,3.436,0,0,0,31.649,38.957ZM4.576,61.836H2.288V57.26H4.576v4.576Zm0-11.439H2.288V45.821H4.576V50.4ZM32.793,65.268a1.145,1.145,0,0,1-1.144,1.144H8.008a1.145,1.145,0,0,1-1.144-1.144V42.389a1.145,1.145,0,0,1,1.144-1.144H31.649a1.145,1.145,0,0,1,1.144,1.144Z" transform="translate(0 -38.957)" fill="#71749d"/>
      </g>
    </g>
    <g id="Group_13" data-name="Group 13" transform="translate(9.152 45.821)">
      <g id="Group_12" data-name="Group 12">
        <path id="Path_7052" data-name="Path 7052" d="M146.343,150.29a5.7,5.7,0,0,0,0-6.3l2.9-2.9a1.144,1.144,0,0,0-1.618-1.618l-2.9,2.9a5.7,5.7,0,0,0-6.3,0l-2.9-2.9a1.144,1.144,0,0,0-1.618,1.618l2.9,2.9a5.7,5.7,0,0,0,0,6.3l-2.9,2.9a1.144,1.144,0,1,0,1.618,1.618l2.9-2.9a5.7,5.7,0,0,0,6.3,0l2.9,2.9a1.144,1.144,0,0,0,1.618-1.618Zm-4.77.28a3.432,3.432,0,1,1,3.432-3.432A3.436,3.436,0,0,1,141.574,150.57Z" transform="translate(-133.566 -139.131)" fill="#71749d"/>
      </g>
    </g>
    <g id="Group_15" data-name="Group 15" transform="translate(28.217 48.109)">
      <g id="Group_14" data-name="Group 14" transform="translate(0 0)">
        <path id="Path_7053" data-name="Path 7053" d="M412.97,172.522a1.144,1.144,0,0,0-1.144,1.144v9.152a1.144,1.144,0,1,0,2.288,0v-9.152A1.144,1.144,0,0,0,412.97,172.522Z" transform="translate(-411.826 -172.522)" fill="#71749d"/>
      </g>
    </g>
  </g>
</svg>
