<svg xmlns="http://www.w3.org/2000/svg" width="34.897" height="32.281" viewBox="0 0 34.897 32.281">
  <g id="wallet" transform="translate(0 -19.098)">
    <path id="Path_7126" data-name="Path 7126" d="M31.705,26.506h-.434V22.29A3.2,3.2,0,0,0,28.079,19.1H4.93a4.934,4.934,0,0,0-4.9,4.446C-.011,23.72,0,22.151,0,46.451A4.933,4.933,0,0,0,4.93,51.379H31.705A3.2,3.2,0,0,0,34.9,48.187V29.7a3.2,3.2,0,0,0-3.192-3.192ZM4.93,21.29h23.15a1,1,0,0,1,1,1v4.217H4.93A2.739,2.739,0,0,1,2.2,23.9,2.739,2.739,0,0,1,4.93,21.29Zm26.776,27.9H4.93a2.739,2.739,0,0,1-2.736-2.736V27.868A4.9,4.9,0,0,0,4.93,28.7H31.705a1,1,0,0,1,1,1v4.444H24.456a5.095,5.095,0,1,0,0,10.19H32.7v3.855A1,1,0,0,1,31.705,49.186Zm1-7.047H24.456a2.9,2.9,0,1,1,0-5.805H32.7Z" transform="translate(0 0)" fill="#71749d"/>
    <circle id="Ellipse_3" data-name="Ellipse 3" cx="1.589" cy="1.589" r="1.589" transform="translate(23.272 37.649)" fill="#71749d"/>
  </g>
</svg>
